<svg width="1463" height="377" viewBox="0 0 1463 377" fill="none" xmlns="http://www.w3.org/2000/svg">
<g clip-path="url(#clip0_372_1994)">
<path d="M188.684 0H524.876C528.178 37.3852 530.202 227.971 523.86 257.795C515.593 296.681 488.207 343.668 471.526 380.539L387.786 568.747C372.51 602.901 350.583 648.215 337.423 681.992H0V417.079C13.0019 398.423 57.5853 293.198 68.9074 267.595L188.684 0Z" fill="white" fill-opacity="0.05"/>
<path d="M1125.23 0H1462.15C1462.74 55.3998 1462.99 110.802 1462.89 166.205C1462.91 182.237 1463.75 251.782 1460.46 260.851C1444.11 305.845 1414.78 369.483 1394.48 412.747C1353.13 500.876 1315.45 595.418 1273.38 681.992H936.481C933.623 645.216 936.592 585.638 935.437 547.322C934.766 525.073 934.454 440.183 937.806 423.495C942.296 401.141 978.516 327.906 990.011 301.966C1034.44 201.016 1079.51 100.359 1125.23 0Z" fill="white" fill-opacity="0.05"/>
<path d="M657.463 0H994.686L995.306 167.471C995.331 181.363 996.404 250.242 993.013 259.932C978.809 300.502 951.434 359.994 932.776 399.63C889.734 491.059 850.115 592.527 805.833 681.992H468.765C466.338 608.005 467.67 499.668 470.346 424.446C470.887 409.252 515.542 316.782 525.269 295.085L657.463 0Z" fill="white" fill-opacity="0.05"/>
</g>
<defs>
<clipPath id="clip0_372_1994">
<rect width="1463" height="377" fill="white"/>
</clipPath>
</defs>
</svg>
