<svg width="1861" height="213" viewBox="0 0 1861 213" fill="none" xmlns="http://www.w3.org/2000/svg">
<path d="M58.7542 0H163.441C164.469 11.6413 165.099 70.9877 163.124 80.2748C160.55 92.3834 152.023 107.015 146.828 118.496L120.752 177.102C115.996 187.737 109.168 201.847 105.07 212.365H0V129.874C4.04866 124.065 17.9314 91.2988 21.457 83.3263L58.7542 0Z" fill="#FF3905"/>
<path d="M350.38 0H455.295C455.477 17.2509 455.554 34.5027 455.525 51.7545C455.529 56.7466 455.793 78.4023 454.766 81.2263C449.677 95.237 440.543 115.053 434.221 128.525C421.344 155.967 409.614 185.407 396.514 212.365H291.606C290.716 200.913 291.64 182.362 291.281 170.43C291.072 163.502 290.975 137.068 292.018 131.872C293.417 124.911 304.695 102.107 308.275 94.0291C322.108 62.5944 336.144 31.2507 350.38 0Z" fill="#FF3905"/>
<path d="M204.727 0H309.735L309.928 52.1488C309.936 56.4747 310.27 77.9228 309.214 80.9401C304.791 93.5731 296.267 112.098 290.457 124.441C277.054 152.911 264.717 184.507 250.928 212.365H145.969C145.213 189.326 145.628 155.591 146.461 132.168C146.629 127.437 160.534 98.6425 163.563 91.8864L204.727 0Z" fill="#FF3905"/>
<path d="M1435.29 3.29803C1450.76 2.72359 1468.77 3.11933 1484.33 3.32936C1485.63 28.6051 1484.63 56.4215 1484.69 81.9017C1484.78 124.112 1485.02 166.554 1484.47 208.749C1471.91 208.982 1459.33 208.934 1446.77 208.601C1445.35 180.479 1446.51 142.296 1446.53 113.414C1446.57 107.447 1447.62 74.0788 1445.3 70.9951C1442.75 72.3374 1395.05 193.045 1389.47 207.601C1381.07 208.122 1369.48 207.696 1360.84 207.62C1354.15 185.07 1338.59 151.623 1329.84 128.883C1323.95 113.58 1312.08 81.6577 1304.95 68.4544C1303.77 80.1014 1304.71 96.864 1304.44 109.017C1303.71 141.464 1305.63 176.522 1304.08 208.756C1295.82 209.028 1273.85 209.347 1266.45 208.039C1265.5 177.136 1266.35 141.802 1266.32 110.594C1266.28 75.966 1265.55 37.7385 1266.65 3.36214C1281.66 2.74737 1298.98 3.17786 1314.17 3.23722C1325.48 22.2138 1368.62 142.4 1375.55 146.324C1379.08 144.677 1429.77 17.6836 1435.29 3.29803Z" fill="#FF3905"/>
<path d="M722.574 3.31385C736.715 3.06543 750.861 3.10461 765 3.4315C762.585 16.1285 757.683 31.7381 753.97 44.452C743.96 83.8697 730.905 123.327 720.555 162.758C716.784 177.124 712.103 195.282 706.867 208.891L669.626 208.727C665.515 201.461 660.912 180.375 658.017 171.511C647.224 138.469 638.864 98.249 627.354 65.9166C616.215 111.738 599.156 161.998 586.94 208.679C575.762 209.329 558.616 208.832 547.334 208.586C543.568 192.02 537.365 172.541 532.704 155.981L505.145 58.2519C502.02 47.2603 491.021 12.6798 491 3.2909C495.064 3.23166 529.653 2.2269 530.868 4.33391C541.414 22.6293 561.982 142.843 569.418 150.514C571.484 148.464 603.984 18.5471 609.19 3.23197C621.534 3.141 633.878 3.17708 646.222 3.34042C649.889 13.1259 654.445 32.5624 657.168 43.0405L676.177 116.662C679.103 127.92 682.544 142.804 686.664 153.258C698.373 103.481 711.425 53.1299 722.574 3.31385Z" fill="#FF3905"/>
<path d="M1759.79 0.332279C1799.05 -2.66645 1843.98 14.5149 1856.07 56.6349C1857.01 59.8731 1858.32 64.3376 1857.91 67.6445C1853.23 70.8981 1826.58 69.1838 1819.41 68.8523C1809.21 41.6055 1784.3 30.5594 1757.08 37.7534C1711.46 49.7936 1706.85 115.59 1725.71 150.693C1743.73 182.898 1795.76 185.436 1815.64 153.906C1818.14 149.912 1822.28 137.009 1821 132.617C1816.74 129.518 1783.01 130.758 1774.88 130.697C1774.25 122.574 1773.58 111.071 1774.66 102.931C1774.93 100.978 1775.64 101.02 1777.45 99.8734C1804.38 99.8175 1833.92 99.2426 1860.6 100.105C1861.32 111.61 1860.85 126.764 1860.85 138.696L1860.7 208.771C1852.93 209.387 1841.19 209.085 1833.44 208.513C1832.25 201.409 1831.58 191.535 1830.88 184.168C1817.69 196.969 1806.86 206.59 1788.01 210.351C1764.65 214.981 1737.33 209.696 1717.36 196.563C1669.05 164.779 1663.51 86.1838 1693.36 40.2262C1709.77 14.9619 1731.23 6.1378 1759.79 0.332279Z" fill="#FF3905"/>
<path d="M1568.3 3.13211C1584.71 2.94119 1601.13 2.95722 1617.53 3.1801C1621.45 11.9251 1627.17 30.2895 1630.56 39.9486L1658.5 120.433L1678.82 178.575C1680.4 183.182 1688.8 204.581 1686.65 207.82C1680.13 209.871 1655 208.666 1646.87 208.474C1641.57 192.207 1636.16 175.984 1630.6 159.806L1619.23 159.392C1603.18 159.351 1570.13 158.384 1555.17 160.141C1551.49 167.705 1541.3 199.955 1538.82 208.703C1524.87 208.818 1510.94 208.775 1497 208.573C1499.37 198.461 1505.55 181.883 1509.04 171.864L1530.24 111.096C1541 80.0519 1551.99 49.1025 1562.49 17.9641C1564.12 13.1053 1566.17 7.7932 1568.3 3.13211ZM1565.7 127.127C1575.06 127.451 1584.42 127.564 1593.77 127.466L1619.64 127.364C1617.64 118.845 1595.3 49.564 1592.71 47.3809C1586.12 61.6466 1571.06 109.69 1565.7 127.127Z" fill="#FF3905"/>
<path d="M993.803 0.441553C1027.2 -2.40604 1067.5 8.09023 1078.44 44.4863C1079.87 49.2498 1080.52 55.3131 1081.21 60.295C1072.44 61.1901 1052.52 61.0276 1043.62 60.481C1036.24 31.248 997.854 25.3039 976.674 43.8563C972.88 47.1751 969.899 56.4721 970.824 61.5032C975.029 84.9096 1013.28 87.2836 1033.02 93.5117C1057.76 101.316 1083.34 116.848 1083.98 147.212C1084.96 193.354 1048.04 209.519 1008.4 211.989C965.005 212.503 927.313 195.09 925 146.158C937.111 145.717 950.169 146.025 962.363 146.092C965.118 156.716 968.521 164.677 978.145 170.866C995.664 182.12 1027.58 180.995 1040.2 162.647C1042.79 158.878 1045.21 149.193 1043.6 145.068C1035.12 123.465 999.108 123.209 980.252 115.486C967.544 111.694 957.314 106.623 946.622 98.6691C926.923 84.0249 926.47 50.8027 938.736 31.0293C951.002 11.2648 972.099 5.19323 993.803 0.441553Z" fill="#FF3905"/>
<path d="M779.929 3.40591C795.175 2.61718 815.74 3.22175 831.303 3.21679C858.911 3.07717 886.52 3.14972 914.128 3.43465C914.343 14.8608 914.415 24.6869 913.913 36.1674C884.295 37.3967 849.777 36.1353 819.349 36.5287C818.283 50.8274 818.765 74.0431 819.123 88.7275C844.015 90.3821 880.871 89.1306 906.89 89.2959C907.762 99.2037 907.505 112.682 906.767 122.574C879.507 123.751 850.095 122.17 822.178 123.126L820.149 123.447C817.78 127.854 818.529 169.153 820.056 174.256C825.131 177.26 901.621 175.945 914.723 176.087C915.123 187.762 915.061 197.123 914.723 208.717C909.668 208.919 904.194 208.881 899.119 208.807C859.526 208.239 819.472 209.7 779.918 208.534C779.144 199.121 779.538 185.294 779.531 175.436L779.539 116.545C779.554 82.6188 778.088 36.0537 779.929 3.40591Z" fill="#FF3905"/>
<path d="M1086.89 2.50472C1140.47 1.48956 1198.03 2.2734 1251.87 2.55153C1252.06 13.56 1252.04 24.5713 1251.8 35.579C1231.48 36.3687 1210.15 35.2166 1189.24 36.0634C1188.31 46.0965 1188.82 64.4428 1188.82 75.0577L1188.85 146.309C1188.92 167.086 1188.87 187.863 1188.71 208.639C1178.63 209.017 1159.84 209.4 1150.12 208.099C1148.44 151.916 1150.97 92.5508 1149.67 35.8218C1129.06 35.2424 1107.66 35.9727 1086.76 35.4908C1086.16 26.4774 1085.34 11.2764 1086.89 2.50472Z" fill="#FF3905"/>
</svg>
