<svg width="102" height="67" viewBox="0 0 102 67" fill="none" xmlns="http://www.w3.org/2000/svg">
<path d="M13.0472 0H36.2943C36.5226 2.58512 36.6626 15.7638 36.224 17.8261C35.6524 20.515 33.7587 23.7641 32.6052 26.3137L26.8148 39.328C25.7585 41.6896 24.2423 44.823 23.3323 47.1587H0V28.8403C0.899062 27.5503 3.98193 20.2742 4.76483 18.5038L13.0472 0Z" fill="#FF3905"/>
<path d="M77.8061 0H101.104C101.144 3.8308 101.161 7.66181 101.155 11.4928C101.156 12.6014 101.214 17.4103 100.986 18.0374C99.8563 21.1487 97.8279 25.5492 96.424 28.5408C93.5646 34.6347 90.9598 41.1722 88.0506 47.1587H64.7543C64.5567 44.6156 64.762 40.4959 64.6822 37.8464C64.6358 36.3079 64.6142 30.438 64.8459 29.284C65.1565 27.7382 67.661 22.6742 68.4559 20.8805C71.5278 13.9 74.6447 6.93966 77.8061 0Z" fill="#FF3905"/>
<path d="M45.4624 0H68.7808L68.8237 11.5804C68.8253 12.541 68.8995 17.3038 68.665 17.9739C67.6829 20.7792 65.7899 24.893 64.4998 27.6338C61.5235 33.9559 58.7839 40.9722 55.7219 47.1587H32.4142C32.2463 42.0425 32.3385 34.5512 32.5235 29.3498C32.5609 28.2991 35.6487 21.9049 36.3213 20.4047L45.4624 0Z" fill="#FF3905"/>
<path d="M69.7409 51.5806C70.8822 51.5382 72.2108 51.5674 73.3582 51.5829C73.4541 53.4487 73.3803 55.5021 73.3848 57.383C73.3917 60.4989 73.4092 63.6318 73.3688 66.7466C72.4422 66.7639 71.5141 66.7603 70.5876 66.7357C70.4832 64.6598 70.5685 61.8412 70.57 59.7091C70.5731 59.2687 70.6508 56.8055 70.4794 56.5779C70.2914 56.677 66.7731 65.5874 66.3612 66.6619C65.7415 66.7004 64.8864 66.6689 64.2492 66.6633C63.7558 64.9987 62.6084 62.5297 61.9628 60.851C61.5281 59.7214 60.6525 57.365 60.1271 56.3903C60.0396 57.2501 60.1089 58.4875 60.0891 59.3846C60.0358 61.7798 60.1774 64.3677 60.0624 66.7471C59.4533 66.7672 57.8331 66.7908 57.2872 66.6942C57.2172 64.4131 57.2796 61.8047 57.2774 59.501C57.2743 56.9448 57.221 54.1229 57.3017 51.5853C58.4087 51.5399 59.6863 51.5717 60.807 51.5761C61.6415 52.9769 64.8232 61.8489 65.3341 62.1385C65.5945 62.017 69.3336 52.6425 69.7409 51.5806Z" fill="#FF3905"/>
<path d="M17.132 51.5798C18.1782 51.5615 19.2247 51.5644 20.2708 51.5885C20.0921 52.526 19.7294 53.6786 19.4547 54.6174C18.7142 57.5279 17.7484 60.4414 16.9827 63.3529C16.7037 64.4137 16.3574 65.7545 15.97 66.7593L13.2149 66.7472C12.9108 66.2107 12.5702 64.6537 12.3561 63.9992C11.5576 61.5595 10.9391 58.5897 10.0876 56.2023C9.26355 59.5857 8.0015 63.2968 7.09776 66.7436C6.27076 66.7916 5.00233 66.7549 4.16764 66.7368C3.88906 65.5136 3.43011 64.0753 3.08529 62.8525L1.04642 55.6364C0.815272 54.8248 0.00152273 52.2714 0 51.5781C0.300664 51.5737 2.85962 51.4996 2.94946 51.6551C3.72971 53.006 5.2513 61.8825 5.80146 62.4489C5.95426 62.2975 8.35866 52.7046 8.74384 51.5738C9.65702 51.5671 10.5703 51.5697 11.4835 51.5818C11.7547 52.3043 12.0918 53.7395 12.2932 54.5132L13.6996 59.9493C13.916 60.7806 14.1706 61.8796 14.4754 62.6515C15.3416 58.976 16.3072 55.2582 17.132 51.5798Z" fill="#FF3905"/>
<path d="M93.7938 51.3741C96.6908 51.1531 100.006 52.4193 100.898 55.5233C100.967 55.7619 101.064 56.0909 101.034 56.3346C100.688 56.5744 98.7221 56.4481 98.193 56.4236C97.44 54.4157 95.602 53.6017 93.5935 54.1318C90.2275 55.0191 89.8872 59.8679 91.279 62.4549C92.6083 64.8282 96.4479 65.0152 97.9143 62.6917C98.0993 62.3973 98.4046 61.4464 98.3102 61.1227C97.9958 60.8943 95.5068 60.9857 94.9069 60.9812C94.8604 60.3826 94.811 59.5349 94.8909 58.9351C94.9107 58.7911 94.9632 58.7942 95.0965 58.7097C97.0836 58.7056 99.2634 58.6632 101.232 58.7268C101.285 59.5747 101.251 60.6914 101.251 61.5708L101.239 66.7349C100.666 66.7802 99.8002 66.758 99.2276 66.7159C99.1401 66.1923 99.0906 65.4647 99.0388 64.9218C98.0658 65.8651 97.2664 66.5741 95.8761 66.8513C94.1524 67.1925 92.1363 66.8031 90.663 65.8352C87.0983 63.4929 86.6895 57.7009 88.8921 54.3141C90.1027 52.4522 91.6863 51.8019 93.7938 51.3741Z" fill="#FF3905"/>
<path d="M79.6028 51.5801C80.8179 51.566 82.033 51.5672 83.2474 51.5836C83.5375 52.229 83.9608 53.5845 84.2121 54.2974L86.2807 60.2377L87.7852 64.5289C87.9017 64.8689 88.5237 66.4483 88.3646 66.6874C87.8819 66.8387 86.0211 66.7498 85.4196 66.7356C85.0275 65.535 84.6263 64.3376 84.2151 63.1436L83.3731 63.113C82.1853 63.11 79.7383 63.0386 78.6305 63.1683C78.3579 63.7266 77.6042 66.1068 77.4199 66.7525C76.3875 66.761 75.3559 66.7578 74.3242 66.7429C74.4993 65.9966 74.9569 64.773 75.2158 64.0336L76.785 59.5485C77.5813 57.2572 78.3952 54.973 79.1726 52.6748C79.2937 52.3161 79.4452 51.9241 79.6028 51.5801ZM79.4101 60.7317C80.103 60.7556 80.7958 60.7639 81.4887 60.7567L83.4035 60.7492C83.2558 60.1204 81.6014 55.007 81.4103 54.8459C80.9222 55.8988 79.8068 59.4447 79.4101 60.7317Z" fill="#FF3905"/>
<path d="M37.1576 51.3744C39.6305 51.1641 42.615 51.9393 43.4251 54.6275C43.531 54.9793 43.5789 55.4271 43.6299 55.7951C42.9805 55.8612 41.5057 55.8492 40.8464 55.8088C40.3005 53.6497 37.4575 53.2107 35.8891 54.5809C35.6082 54.8261 35.3874 55.5127 35.4559 55.8843C35.7673 57.6131 38.5996 57.7884 40.0614 58.2484C41.894 58.8248 43.7883 59.972 43.8355 62.2146C43.9078 65.6226 41.1738 66.8165 38.2387 66.9989C35.025 67.0368 32.2338 65.7507 32.0625 62.1367C32.9594 62.1042 33.9263 62.1269 34.8293 62.1319C35.0334 62.9165 35.2854 63.5045 35.998 63.9616C37.2954 64.7928 39.6587 64.7098 40.5936 63.3546C40.7855 63.0762 40.9644 62.3609 40.8449 62.0562C40.2175 60.4607 37.5504 60.4418 36.1541 59.8714C35.213 59.5913 34.4555 59.2168 33.6637 58.6293C32.2049 57.5477 32.1714 55.094 33.0797 53.6336C33.988 52.1738 35.5503 51.7254 37.1576 51.3744Z" fill="#FF3905"/>
<path d="M21.3424 51.5847C22.4747 51.5264 24.002 51.5711 25.1577 51.5707C27.2081 51.5604 29.2584 51.5657 31.3088 51.5868C31.3248 52.4308 31.3301 53.1566 31.2928 54.0045C29.0932 54.0953 26.5297 54.0022 24.27 54.0312C24.1908 55.0874 24.2266 56.8022 24.2532 57.8868C26.1018 58.009 28.8389 57.9166 30.7713 57.9288C30.836 58.6606 30.817 59.6562 30.7621 60.3869C28.7377 60.4738 26.5533 60.357 24.4801 60.4276L24.3294 60.4513C24.1535 60.7769 24.2091 63.8274 24.3225 64.2042C24.6994 64.4261 30.3799 64.329 31.353 64.3395C31.3827 65.2019 31.3781 65.8933 31.353 66.7497C30.9776 66.7646 30.571 66.7618 30.1942 66.7563C27.2538 66.7144 24.2791 66.8223 21.3416 66.7362C21.2841 66.0409 21.3134 65.0196 21.3129 64.2914L21.3134 59.9415C21.3146 57.4356 21.2057 53.9962 21.3424 51.5847Z" fill="#FF3905"/>
<path d="M44.095 51.5762C48.0412 51.5015 52.2805 51.5592 56.2457 51.5796C56.2602 52.3894 56.2586 53.1993 56.2411 54.009C54.7443 54.0671 53.1728 53.9823 51.6333 54.0446C51.5648 54.7826 51.6021 56.132 51.6021 56.9128L51.6044 62.1538C51.6097 63.682 51.6059 65.2102 51.5937 66.7384C50.8514 66.7662 49.468 66.7944 48.7516 66.6987C48.6282 62.5661 48.8148 58.1995 48.7188 54.0268C47.2007 53.9842 45.6246 54.0379 44.0851 54.0025C44.041 53.3395 43.9808 52.2214 44.095 51.5762Z" fill="#FF3905"/>
</svg>
